<svg width="20" height="20" viewBox="0 0 20 20" fill="none" xmlns="http://www.w3.org/2000/svg">
<g clip-path="url(#clip0_32_2570)">
<path d="M7.37567 14.75C8.84013 16.2145 11.2145 16.2145 12.679 14.75L12.679 14.75L15.3557 12.0733C15.8523 11.5937 15.866 10.8024 15.3864 10.3058C14.9068 9.80926 14.1155 9.79551 13.6189 10.2751C13.6085 10.2852 13.5983 10.2954 13.5882 10.3058L11.269 12.6241L11.2499 1.25C11.2499 0.559648 10.6902 0 9.99985 0C9.3095 0 8.74985 0.559648 8.74985 1.25L8.76735 12.6058L6.46653 10.305C5.96997 9.82539 5.17864 9.83914 4.69903 10.3357C4.23118 10.8201 4.23118 11.5881 4.69903 12.0725L7.37567 14.75Z" fill="#090909"/>
<path d="M18.75 12.0833C18.0596 12.0833 17.5 12.643 17.5 13.3333V17.1591C17.4995 17.3472 17.3472 17.4995 17.1592 17.5H2.84082C2.65277 17.4995 2.50043 17.3472 2.5 17.1591V13.3333C2.5 12.643 1.94035 12.0833 1.25 12.0833C0.559648 12.0833 0 12.643 0 13.3333V17.1591C0.00183594 18.7273 1.27266 19.9982 2.84082 20H17.1591C18.7273 19.9982 19.9981 18.7273 20 17.1592V13.3334C20 12.643 19.4404 12.0833 18.75 12.0833Z" fill="#090909"/>
</g>
<defs>
<clipPath id="clip0_32_2570">
<rect width="20" height="20" fill="white"/>
</clipPath>
</defs>
</svg>
