<svg width="20" height="20" viewBox="0 0 20 20" fill="none" xmlns="http://www.w3.org/2000/svg">
<g clip-path="url(#clip0_32_2561)">
<path d="M13.7503 12.0834C13.7503 12.4149 13.6186 12.7328 13.3842 12.9672C13.1498 13.2017 12.8318 13.3333 12.5003 13.3333H11.2503V14.5833C11.2503 14.9149 11.1186 15.2328 10.8842 15.4672C10.6498 15.7017 10.3318 15.8333 10.0003 15.8333C9.66881 15.8333 9.35086 15.7017 9.11644 15.4672C8.88202 15.2328 8.75033 14.9149 8.75033 14.5833V13.3333H7.50033C7.16881 13.3333 6.85086 13.2017 6.61644 12.9672C6.38202 12.7328 6.25033 12.4149 6.25033 12.0834C6.25033 11.7518 6.38202 11.4339 6.61644 11.1995C6.85086 10.965 7.16881 10.8334 7.50033 10.8334H8.75033V9.58335C8.75033 9.25183 8.88202 8.93389 9.11644 8.69947C9.35086 8.46505 9.66881 8.33335 10.0003 8.33335C10.3318 8.33335 10.6498 8.46505 10.8842 8.69947C11.1186 8.93389 11.2503 9.25183 11.2503 9.58335V10.8334H12.5003C12.8318 10.8334 13.1498 10.965 13.3842 11.1995C13.6186 11.4339 13.7503 11.7518 13.7503 12.0834ZM18.3337 6.79752V15.4167C18.3323 16.6319 17.849 17.7969 16.9898 18.6561C16.1305 19.5154 14.9655 19.9987 13.7503 20H6.25033C5.03516 19.9987 3.87014 19.5154 3.01088 18.6561C2.15163 17.7969 1.66832 16.6319 1.66699 15.4167V4.58335C1.66832 3.36818 2.15163 2.20316 3.01088 1.34391C3.87014 0.484651 5.03516 0.00134006 6.25033 1.65842e-05H11.5362C12.1383 -0.00160847 12.7348 0.116209 13.291 0.346649C13.8473 0.577089 14.3524 0.915576 14.777 1.34252L16.9912 3.55668C17.4181 3.98128 17.7566 4.48634 17.987 5.04263C18.2175 5.59892 18.3353 6.19539 18.3337 6.79752ZM15.8337 15.4167V7.50002H12.5003C12.0583 7.50002 11.6344 7.32442 11.3218 7.01186C11.0093 6.6993 10.8337 6.27538 10.8337 5.83335V2.50002H6.25033C5.69779 2.50002 5.16789 2.71951 4.77719 3.11021C4.38649 3.50091 4.16699 4.03082 4.16699 4.58335V15.4167C4.16699 15.9692 4.38649 16.4991 4.77719 16.8898C5.16789 17.2805 5.69779 17.5 6.25033 17.5H13.7503C14.3029 17.5 14.8328 17.2805 15.2235 16.8898C15.6142 16.4991 15.8337 15.9692 15.8337 15.4167Z" fill="#090909"/>
</g>
<defs>
<clipPath id="clip0_32_2561">
<rect width="20" height="20" fill="white"/>
</clipPath>
</defs>
</svg>
