<svg width="20" height="20" viewBox="0 0 20 20" fill="none" xmlns="http://www.w3.org/2000/svg">
<path d="M18.7931 11.0083L17.3331 5.76335C16.8621 4.07331 15.8399 2.58912 14.4288 1.54659C13.0177 0.504061 11.2987 -0.0370099 9.54488 0.00933999C7.79105 0.0556899 6.10301 0.686802 4.74895 1.80241C3.39489 2.91801 2.45248 4.45412 2.07144 6.16668L0.943105 11.2408C0.79425 11.9108 0.79773 12.6056 0.95329 13.274C1.10885 13.9424 1.41252 14.5673 1.84188 15.1026C2.27125 15.638 2.81535 16.0701 3.43403 16.367C4.05271 16.664 4.73018 16.8182 5.41644 16.8183H5.74977C6.01496 17.7354 6.57097 18.5415 7.33404 19.1152C8.09712 19.6889 9.02594 19.9991 9.98061 19.9991C10.9353 19.9991 11.8641 19.6889 12.6272 19.1152C13.3902 18.5415 13.9462 17.7354 14.2114 16.8183H14.3723C15.0789 16.8184 15.7759 16.6551 16.409 16.3412C17.042 16.0273 17.5939 15.5713 18.0216 15.0087C18.4492 14.4462 18.741 13.7924 18.8741 13.0985C19.0072 12.4045 18.9781 11.6892 18.7889 11.0083H18.7931ZM16.0356 13.495C15.8422 13.7519 15.5915 13.96 15.3034 14.103C15.0154 14.2459 14.698 14.3196 14.3764 14.3183H5.41644C5.10453 14.3183 4.79661 14.2482 4.51541 14.1132C4.23421 13.9782 3.98691 13.7819 3.79175 13.5385C3.59659 13.2952 3.45855 13.0112 3.38782 12.7074C3.31709 12.4036 3.31548 12.0878 3.38311 11.7833L4.51144 6.70001C4.77054 5.53007 5.41356 4.48043 6.33814 3.71817C7.26273 2.95591 8.41573 2.52485 9.61361 2.49361C10.8115 2.46237 11.9854 2.83275 12.9485 3.54577C13.9115 4.2588 14.6084 5.2735 14.9281 6.42835L16.3848 11.6733C16.4727 11.9832 16.4869 12.3093 16.4262 12.6256C16.3656 12.9419 16.2318 13.2396 16.0356 13.495Z" fill="#090909"/>
</svg>
