<svg width="20" height="20" viewBox="0 0 20 20" fill="none" xmlns="http://www.w3.org/2000/svg">
<g clip-path="url(#clip0_32_2565)">
<path d="M14.583 0H5.41634C4.20124 0.00154355 3.03635 0.484925 2.17714 1.34413C1.31793 2.20334 0.834551 3.36823 0.833008 4.58333V17.06C0.833635 17.6436 1.00934 18.2137 1.33741 18.6964C1.66548 19.1791 2.13082 19.5522 2.67326 19.7676C3.21569 19.983 3.81028 20.0307 4.38011 19.9046C4.94995 19.7784 5.46884 19.4842 5.86967 19.06L9.96301 14.7267L14.1405 19.1017C14.5426 19.5227 15.0615 19.8137 15.6304 19.9373C16.1993 20.0609 16.7922 20.0114 17.3327 19.7953C17.8733 19.5791 18.3368 19.2061 18.6636 18.7242C18.9903 18.2424 19.1654 17.6738 19.1663 17.0917V4.58333C19.1648 3.36823 18.6814 2.20334 17.8222 1.34413C16.963 0.484925 15.7981 0.00154355 14.583 0V0ZM16.6663 17.0917C16.6662 17.1748 16.6412 17.2559 16.5946 17.3247C16.5479 17.3935 16.4818 17.4467 16.4047 17.4776C16.3275 17.5086 16.2429 17.5157 16.1617 17.4981C16.0805 17.4806 16.0063 17.4392 15.9488 17.3792L10.8655 12.0533C10.7484 11.9307 10.6075 11.8332 10.4515 11.7667C10.2955 11.7002 10.1276 11.6662 9.95801 11.6667C9.78848 11.6672 9.62083 11.7022 9.46525 11.7695C9.30967 11.8368 9.16941 11.9351 9.05301 12.0583L4.05301 17.3458C3.99721 17.4089 3.92292 17.4526 3.84075 17.4709C3.75858 17.4891 3.67275 17.481 3.59551 17.4475C3.51594 17.4197 3.44746 17.3669 3.40018 17.2972C3.3529 17.2274 3.32935 17.1442 3.33301 17.06V4.58333C3.33301 4.0308 3.5525 3.5009 3.9432 3.11019C4.3339 2.71949 4.86381 2.5 5.41634 2.5H14.583C15.1355 2.5 15.6654 2.71949 16.0561 3.11019C16.4468 3.5009 16.6663 4.0308 16.6663 4.58333V17.0917Z" fill="#090909"/>
</g>
<defs>
<clipPath id="clip0_32_2565">
<rect width="20" height="20" fill="white"/>
</clipPath>
</defs>
</svg>
