<svg width="20" height="20" viewBox="0 0 20 20" fill="none" xmlns="http://www.w3.org/2000/svg">
<g clip-path="url(#clip0_32_2548)">
<path d="M19.1453 7.24616L13.2404 1.34117C11.4491 -0.445429 8.5499 -0.445429 6.75869 1.34117L0.853701 7.24616C0.304952 7.79198 -0.00262553 8.53463 -0.000477101 9.30865V17.957C0.00135883 19.0858 0.916513 20.0002 2.04538 20.0011H17.9537C19.0825 20.0002 19.9977 19.0858 19.9995 17.957V9.30865C20.0017 8.53463 19.6941 7.79198 19.1453 7.24616ZM17.4995 17.5011H13.3329V14.8495C13.3329 13.0923 11.9084 11.6678 10.1512 11.6678H9.84786C8.09068 11.6678 6.66619 13.0923 6.66619 14.8495V17.5011H2.49952V9.30865C2.49979 9.19815 2.54346 9.09221 2.6212 9.01365L8.52619 3.10867C9.33966 2.29496 10.6588 2.2948 11.4725 3.10827C11.4726 3.10839 11.4727 3.10855 11.4729 3.10867L17.3778 9.01365C17.4555 9.09221 17.4993 9.19815 17.4995 9.30865V17.5011H17.4995Z" fill="#090909"/>
</g>
<defs>
<clipPath id="clip0_32_2548">
<rect width="20" height="20" fill="white"/>
</clipPath>
</defs>
</svg>
