<svg width="20" height="20" viewBox="0 0 20 20" fill="none" xmlns="http://www.w3.org/2000/svg">
<g clip-path="url(#clip0_32_2582)">
<path d="M15.4167 3.33336H12.5V2.50003C12.4996 2.12937 12.4169 1.76343 12.2578 1.42862C12.0988 1.0938 11.8675 0.798465 11.5805 0.563916C11.2934 0.329367 10.9579 0.161456 10.5982 0.0723003C10.2384 -0.0168556 9.86332 -0.0250328 9.5 0.0483588C8.92431 0.178733 8.41112 0.503487 8.04684 0.967942C7.68256 1.4324 7.48945 2.00818 7.5 2.59836V3.33336H4.58333C3.36823 3.3349 2.20334 3.81828 1.34413 4.67749C0.484925 5.5367 0.00154355 6.70159 0 7.91669L0 15.4167C0.00154355 16.6318 0.484925 17.7967 1.34413 18.6559C2.20334 19.5151 3.36823 19.9985 4.58333 20H15.4167C16.6318 19.9985 17.7967 19.5151 18.6559 18.6559C19.5151 17.7967 19.9985 16.6318 20 15.4167V7.91669C19.9985 6.70159 19.5151 5.5367 18.6559 4.67749C17.7967 3.81828 16.6318 3.3349 15.4167 3.33336ZM17.5 15.4167C17.5 15.9692 17.2805 16.4991 16.8898 16.8898C16.4991 17.2805 15.9692 17.5 15.4167 17.5H4.58333C4.0308 17.5 3.5009 17.2805 3.11019 16.8898C2.71949 16.4991 2.5 15.9692 2.5 15.4167V7.91669C2.5 7.36416 2.71949 6.83425 3.11019 6.44355C3.5009 6.05285 4.0308 5.83336 4.58333 5.83336H7.65333C7.82304 6.32048 8.14013 6.74271 8.56062 7.0415C8.98111 7.34029 9.48416 7.50081 10 7.50081C10.5158 7.50081 11.0189 7.34029 11.4394 7.0415C11.8599 6.74271 12.177 6.32048 12.3467 5.83336H15.4167C15.9692 5.83336 16.4991 6.05285 16.8898 6.44355C17.2805 6.83425 17.5 7.36416 17.5 7.91669V15.4167ZM8.33333 10.8334V14.1667C8.33333 14.6087 8.15774 15.0326 7.84518 15.3452C7.53262 15.6578 7.10869 15.8334 6.66667 15.8334H5.83333C5.39131 15.8334 4.96738 15.6578 4.65482 15.3452C4.34226 15.0326 4.16667 14.6087 4.16667 14.1667V10.8334C4.16667 10.3913 4.34226 9.96741 4.65482 9.65485C4.96738 9.34229 5.39131 9.16669 5.83333 9.16669H6.66667C7.10869 9.16669 7.53262 9.34229 7.84518 9.65485C8.15774 9.96741 8.33333 10.3913 8.33333 10.8334ZM15 14.5834C15 14.9149 14.8683 15.2328 14.6339 15.4672C14.3995 15.7017 14.0815 15.8334 13.75 15.8334H11.25C10.9185 15.8334 10.6005 15.7017 10.3661 15.4672C10.1317 15.2328 10 14.9149 10 14.5834C10 14.2518 10.1317 13.9339 10.3661 13.6995C10.6005 13.4651 10.9185 13.3334 11.25 13.3334H13.75C14.0815 13.3334 14.3995 13.4651 14.6339 13.6995C14.8683 13.9339 15 14.2518 15 14.5834ZM15.8333 10.4167C15.8333 10.7482 15.7016 11.0662 15.4672 11.3006C15.2328 11.535 14.9149 11.6667 14.5833 11.6667H11.25C10.9185 11.6667 10.6005 11.535 10.3661 11.3006C10.1317 11.0662 10 10.7482 10 10.4167C10 10.0852 10.1317 9.76723 10.3661 9.53281C10.6005 9.29839 10.9185 9.16669 11.25 9.16669H14.5833C14.9149 9.16669 15.2328 9.29839 15.4672 9.53281C15.7016 9.76723 15.8333 10.0852 15.8333 10.4167Z" fill="#090909"/>
</g>
<defs>
<clipPath id="clip0_32_2582">
<rect width="20" height="20" fill="white"/>
</clipPath>
</defs>
</svg>
