<svg width="14" height="20" viewBox="0 0 14 20" fill="none" xmlns="http://www.w3.org/2000/svg">
<path d="M6.54361 11.6823C2.99217 12.0034 0.286466 15.0043 0.333615 18.5698V18.7507C0.333615 19.441 0.893263 20.0007 1.58361 20.0007C2.27397 20.0007 2.83361 19.441 2.83361 18.7507V18.5198C2.79604 16.3306 4.41166 14.4637 6.58362 14.1865C8.87631 13.9592 10.9192 15.6335 11.1466 17.9262C11.16 18.0617 11.1668 18.1978 11.1669 18.334V18.7507C11.1669 19.441 11.7266 20.0007 12.4169 20.0007C13.1073 20.0007 13.6669 19.441 13.6669 18.7507V18.334C13.6629 14.6479 10.6714 11.6631 6.98541 11.6672C6.83803 11.6674 6.69069 11.6724 6.54361 11.6823Z" fill="#090909"/>
<path d="M7.00049 10C9.76189 10 12.0005 7.76141 12.0005 5C12.0005 2.23859 9.76189 0 7.00049 0C4.23908 0 2.00049 2.23859 2.00049 5C2.00322 7.76027 4.24021 9.99723 7.00049 10ZM7.00049 2.5C8.38119 2.5 9.50049 3.6193 9.50049 5C9.50049 6.3807 8.38119 7.5 7.00049 7.5C5.61979 7.5 4.50049 6.3807 4.50049 5C4.50049 3.6193 5.61979 2.5 7.00049 2.5Z" fill="#090909"/>
</svg>
