<svg width="20" height="20" viewBox="0 0 20 20" fill="none" xmlns="http://www.w3.org/2000/svg">
<g clip-path="url(#clip0_32_2553)">
<path d="M17.4998 11.25C17.0096 11.2504 16.5305 11.3954 16.1223 11.6667L15.2731 11.2425C15.4862 10.3388 15.4634 9.39535 15.2069 8.50291C14.9504 7.61047 14.4687 6.79897 13.8082 6.14631C13.1477 5.49365 12.3305 5.02176 11.435 4.77593C10.5396 4.53011 9.59595 4.51861 8.69478 4.74254L8.19478 3.84171C8.48952 3.37715 8.62279 2.82833 8.57392 2.28033C8.52505 1.73234 8.29678 1.21576 7.92449 0.810681C7.5522 0.405601 7.05668 0.134643 6.51474 0.0398058C5.97281 -0.0550312 5.41472 0.0315502 4.92699 0.286129C4.43926 0.540708 4.04913 0.949066 3.81707 1.4479C3.58501 1.94674 3.52399 2.5082 3.64345 3.04524C3.76292 3.58229 4.05621 4.06493 4.47785 4.41835C4.8995 4.77177 5.42595 4.97623 5.97561 5.00004L6.47561 5.89504C5.50141 6.72992 4.85575 7.88394 4.65394 9.15096C4.45213 10.418 4.70733 11.7155 5.37394 12.8117L3.03311 15.0575C2.49587 14.9401 1.93487 15.003 1.43702 15.2366C0.939169 15.4702 0.532238 15.8615 0.279255 16.3498C0.0262721 16.8381 -0.0586455 17.3962 0.0376546 17.9376C0.133955 18.479 0.406098 18.9736 0.811936 19.3447C1.21777 19.7159 1.73466 19.9428 2.28253 19.9904C2.8304 20.0381 3.37869 19.9037 3.84248 19.6082C4.30626 19.3126 4.65966 18.8724 4.84794 18.3557C5.03622 17.839 5.04888 17.2747 4.88394 16.75L7.12811 14.595C8.23608 15.2895 9.55815 15.5591 10.8496 15.3537C12.141 15.1484 13.3143 14.4822 14.1523 13.4784L15.0048 13.9042C15.0349 14.3912 15.2068 14.8587 15.4993 15.2491C15.7919 15.6396 16.1923 15.9359 16.6512 16.1015C17.1102 16.2672 17.6075 16.2949 18.082 16.1814C18.5565 16.0678 18.9874 15.8178 19.3216 15.4623C19.6557 15.1069 19.8786 14.6614 19.9626 14.1808C20.0467 13.7002 19.9883 13.2055 19.7946 12.7577C19.6009 12.3098 19.2805 11.9285 18.8727 11.6606C18.4649 11.3927 17.9877 11.25 17.4998 11.25ZM9.99978 12.9167C9.42291 12.9167 8.85901 12.7456 8.37936 12.4252C7.89972 12.1047 7.52588 11.6492 7.30513 11.1162C7.08437 10.5833 7.02661 9.99681 7.13915 9.43103C7.25169 8.86525 7.52948 8.34555 7.93738 7.93765C8.34528 7.52974 8.86498 7.25196 9.43076 7.13942C9.99654 7.02688 10.583 7.08464 11.1159 7.30539C11.6489 7.52615 12.1044 7.89998 12.4249 8.37963C12.7454 8.85927 12.9164 9.42318 12.9164 10C12.9164 10.7736 12.6092 11.5155 12.0622 12.0624C11.5152 12.6094 10.7733 12.9167 9.99978 12.9167Z" fill="#090909"/>
</g>
<defs>
<clipPath id="clip0_32_2553">
<rect width="20" height="20" fill="white"/>
</clipPath>
</defs>
</svg>
